<mxfile host="app.diagrams.net" modified="2023-10-01T22:07:14.382Z" agent="Mozilla/5.0 (Windows NT 10.0; Win64; x64) AppleWebKit/537.36 (KHTML, like Gecko) Chrome/117.0.0.0 Safari/537.36" etag="wUGFo28xIKE0XrFDvyru" version="22.0.0" type="device">
  <diagram name="Страница 1" id="R3BQzPutQQSe-Bl5Vpv4">
    <mxGraphModel dx="2206" dy="1166" grid="1" gridSize="10" guides="1" tooltips="1" connect="1" arrows="1" fold="1" page="1" pageScale="1" pageWidth="5000" pageHeight="5000" math="0" shadow="0">
      <root>
        <mxCell id="0" />
        <mxCell id="1" parent="0" />
        <mxCell id="XT1SOQ32f9xsXmhmNtwk-62" style="rounded=0;orthogonalLoop=1;jettySize=auto;html=1;entryX=0;entryY=0.5;entryDx=0;entryDy=0;fontSize=16;fontColor=#080808;edgeStyle=entityRelationEdgeStyle;" parent="1" source="XT1SOQ32f9xsXmhmNtwk-51" target="XT1SOQ32f9xsXmhmNtwk-17" edge="1">
          <mxGeometry relative="1" as="geometry" />
        </mxCell>
        <mxCell id="XT1SOQ32f9xsXmhmNtwk-51" value="&lt;font style=&quot;font-size: 16px;&quot;&gt;&lt;b&gt;&lt;font color=&quot;#030303&quot;&gt;&lt;font style=&quot;font-size: 16px;&quot;&gt;Signal&lt;br&gt;&lt;/font&gt;&lt;br&gt;textSaveUndo()&lt;/font&gt;&lt;/b&gt;&lt;br style=&quot;font-size: 16px;&quot;&gt;&lt;/font&gt;" style="shape=parallelogram;perimeter=parallelogramPerimeter;whiteSpace=wrap;html=1;fixedSize=1;fillColor=#60a917;fontColor=#ffffff;strokeColor=#2D7600;fontSize=16;direction=east;" parent="1" vertex="1">
          <mxGeometry x="1630" y="1120" width="190" height="60" as="geometry" />
        </mxCell>
        <mxCell id="XT1SOQ32f9xsXmhmNtwk-63" style="rounded=0;orthogonalLoop=1;jettySize=auto;html=1;entryX=0;entryY=0.5;entryDx=0;entryDy=0;fontSize=16;fontColor=#080808;edgeStyle=entityRelationEdgeStyle;" parent="1" source="XT1SOQ32f9xsXmhmNtwk-40" target="XT1SOQ32f9xsXmhmNtwk-51" edge="1">
          <mxGeometry relative="1" as="geometry" />
        </mxCell>
        <mxCell id="XT1SOQ32f9xsXmhmNtwk-64" style="rounded=0;orthogonalLoop=1;jettySize=auto;html=1;entryX=0;entryY=0.5;entryDx=0;entryDy=0;fontSize=16;fontColor=#080808;edgeStyle=entityRelationEdgeStyle;" parent="1" source="XT1SOQ32f9xsXmhmNtwk-50" target="XT1SOQ32f9xsXmhmNtwk-51" edge="1">
          <mxGeometry relative="1" as="geometry" />
        </mxCell>
        <mxCell id="7QGZvYEfe1NqWT54HNF2-2" style="rounded=0;orthogonalLoop=1;jettySize=auto;html=1;fontSize=16;fontColor=#080808;edgeStyle=entityRelationEdgeStyle;shape=link;entryX=1;entryY=0.5;entryDx=0;entryDy=0;" edge="1" parent="1" source="XT1SOQ32f9xsXmhmNtwk-65" target="XT1SOQ32f9xsXmhmNtwk-26">
          <mxGeometry relative="1" as="geometry">
            <mxPoint x="1610" y="1690" as="targetPoint" />
          </mxGeometry>
        </mxCell>
        <mxCell id="XT1SOQ32f9xsXmhmNtwk-65" value="&lt;font color=&quot;#000000&quot;&gt;&lt;font style=&quot;border-color: var(--border-color);&quot;&gt;Signal/Slot&lt;br&gt;&lt;/font&gt;&lt;br&gt;updateBufferSignal()&lt;br&gt;updateBufferSlot()&amp;nbsp;&amp;nbsp;&lt;/font&gt;" style="shape=parallelogram;perimeter=parallelogramPerimeter;whiteSpace=wrap;html=1;fixedSize=1;direction=west;fontSize=16;fontColor=#ffffff;fillColor=#60a917;strokeColor=#2D7600;fontStyle=1" parent="1" vertex="1">
          <mxGeometry x="1620" y="1552.5" width="210" height="75" as="geometry" />
        </mxCell>
        <mxCell id="XT1SOQ32f9xsXmhmNtwk-66" style="rounded=0;orthogonalLoop=1;jettySize=auto;html=1;entryX=0;entryY=0.5;entryDx=0;entryDy=0;fontSize=16;fontColor=#080808;edgeStyle=entityRelationEdgeStyle;shape=link;" parent="1" source="XT1SOQ32f9xsXmhmNtwk-18" target="XT1SOQ32f9xsXmhmNtwk-65" edge="1">
          <mxGeometry relative="1" as="geometry" />
        </mxCell>
        <mxCell id="7QGZvYEfe1NqWT54HNF2-20" value="&lt;font color=&quot;#000000&quot; style=&quot;font-size: 16px;&quot;&gt;File txt (Buffer)&lt;/font&gt;" style="swimlane;whiteSpace=wrap;html=1;fillColor=#60a917;fontColor=#ffffff;strokeColor=#2D7600;" vertex="1" parent="1">
          <mxGeometry x="960" y="1000" width="160" height="290" as="geometry">
            <mxRectangle x="2120" y="960" width="150" height="30" as="alternateBounds" />
          </mxGeometry>
        </mxCell>
        <mxCell id="7QGZvYEfe1NqWT54HNF2-21" value="&lt;font color=&quot;#000000&quot; style=&quot;font-size: 16px;&quot;&gt;Add word from clipboard&lt;/font&gt;" style="rounded=1;whiteSpace=wrap;html=1;fillColor=#60a917;fontColor=#ffffff;strokeColor=#2D7600;fontSize=16;" vertex="1" parent="7QGZvYEfe1NqWT54HNF2-20">
          <mxGeometry x="20" y="40" width="120" height="60" as="geometry" />
        </mxCell>
        <mxCell id="7QGZvYEfe1NqWT54HNF2-22" value="&lt;font color=&quot;#030303&quot; style=&quot;font-size: 16px;&quot;&gt;Delete last&lt;/font&gt;" style="rounded=1;whiteSpace=wrap;html=1;fillColor=#60a917;fontColor=#ffffff;strokeColor=#2D7600;fontSize=16;" vertex="1" parent="7QGZvYEfe1NqWT54HNF2-20">
          <mxGeometry x="20" y="120" width="120" height="60" as="geometry" />
        </mxCell>
        <mxCell id="7QGZvYEfe1NqWT54HNF2-23" style="rounded=0;orthogonalLoop=1;jettySize=auto;html=1;entryX=1;entryY=0.5;entryDx=0;entryDy=0;edgeStyle=entityRelationEdgeStyle;" edge="1" parent="1" source="XT1SOQ32f9xsXmhmNtwk-50" target="7QGZvYEfe1NqWT54HNF2-22">
          <mxGeometry relative="1" as="geometry" />
        </mxCell>
        <mxCell id="7QGZvYEfe1NqWT54HNF2-24" style="rounded=0;orthogonalLoop=1;jettySize=auto;html=1;exitX=0;exitY=0.5;exitDx=0;exitDy=0;entryX=1;entryY=0.5;entryDx=0;entryDy=0;edgeStyle=entityRelationEdgeStyle;" edge="1" parent="1" source="XT1SOQ32f9xsXmhmNtwk-40" target="7QGZvYEfe1NqWT54HNF2-21">
          <mxGeometry relative="1" as="geometry" />
        </mxCell>
        <mxCell id="7QGZvYEfe1NqWT54HNF2-25" value="&lt;b style=&quot;border-color: var(--border-color); color: rgb(8, 8, 8); font-size: 16px;&quot;&gt;* WordManager&lt;/b&gt;" style="swimlane;whiteSpace=wrap;html=1;fillColor=#60a917;fontColor=#ffffff;strokeColor=#2D7600;" vertex="1" parent="1">
          <mxGeometry x="1200" y="1000" width="320" height="410" as="geometry">
            <mxRectangle x="2720" y="1100" width="160" height="30" as="alternateBounds" />
          </mxGeometry>
        </mxCell>
        <mxCell id="XT1SOQ32f9xsXmhmNtwk-40" value="&lt;font color=&quot;#000000&quot; style=&quot;font-size: 16px;&quot;&gt;&lt;b&gt;Ctrl + C + C&lt;br style=&quot;font-size: 16px;&quot;&gt;&lt;br style=&quot;font-size: 16px;&quot;&gt;&lt;pre style=&quot;border-color: var(--border-color); text-align: left; margin-top: 0px; margin-bottom: 0px; font-size: 16px;&quot;&gt;hotKeySaveWord()&lt;/pre&gt;&lt;/b&gt;&lt;/font&gt;" style="rounded=1;whiteSpace=wrap;html=1;fillColor=#60a917;fontColor=#ffffff;strokeColor=#2D7600;fontSize=16;" parent="7QGZvYEfe1NqWT54HNF2-25" vertex="1">
          <mxGeometry x="40" y="40" width="240" height="60" as="geometry" />
        </mxCell>
        <mxCell id="XT1SOQ32f9xsXmhmNtwk-50" value="&lt;font color=&quot;#000000&quot; style=&quot;font-size: 16px;&quot;&gt;&lt;b&gt;Ctrl + Z&lt;br style=&quot;font-size: 16px;&quot;&gt;&lt;br style=&quot;font-size: 16px;&quot;&gt;&lt;pre style=&quot;border-color: var(--border-color); text-align: left; margin-top: 0px; margin-bottom: 0px; font-size: 16px;&quot;&gt;&lt;pre style=&quot;border-color: var(--border-color); margin-top: 0px; margin-bottom: 0px; font-size: 16px;&quot;&gt;hotKeyUndoWord()&lt;/pre&gt;&lt;/pre&gt;&lt;/b&gt;&lt;/font&gt;" style="rounded=1;whiteSpace=wrap;html=1;fillColor=#60a917;fontColor=#ffffff;strokeColor=#2D7600;fontSize=16;" parent="7QGZvYEfe1NqWT54HNF2-25" vertex="1">
          <mxGeometry x="40" y="120" width="240" height="60" as="geometry" />
        </mxCell>
        <mxCell id="7QGZvYEfe1NqWT54HNF2-27" value="&lt;b style=&quot;border-color: var(--border-color); color: rgb(8, 8, 8); font-size: 16px;&quot;&gt;* FileManager&lt;/b&gt;" style="swimlane;whiteSpace=wrap;html=1;fillColor=#60a917;fontColor=#ffffff;strokeColor=#2D7600;" vertex="1" parent="1">
          <mxGeometry x="1200" y="1520" width="320" height="530" as="geometry">
            <mxRectangle x="1240" y="1520" width="140" height="30" as="alternateBounds" />
          </mxGeometry>
        </mxCell>
        <mxCell id="XT1SOQ32f9xsXmhmNtwk-26" value="&lt;font color=&quot;#000000&quot; style=&quot;font-size: 16px;&quot;&gt;Load words buffer to UI&lt;br style=&quot;border-color: var(--border-color); text-align: left; font-size: 16px;&quot;&gt;&lt;br style=&quot;border-color: var(--border-color); text-align: left; font-size: 16px;&quot;&gt;&lt;/font&gt;&lt;pre style=&quot;border-color: var(--border-color); text-align: left; margin-top: 0px; margin-bottom: 0px; font-size: 16px;&quot;&gt;&lt;font color=&quot;#000000&quot; style=&quot;font-size: 16px;&quot;&gt;updateBufferSlot(str)&lt;/font&gt;&lt;/pre&gt;" style="rounded=1;whiteSpace=wrap;html=1;fontSize=16;fontStyle=1;fillColor=#60a917;fontColor=#ffffff;strokeColor=#2D7600;" parent="7QGZvYEfe1NqWT54HNF2-27" vertex="1">
          <mxGeometry x="40" y="40" width="240" height="60" as="geometry" />
        </mxCell>
        <mxCell id="XT1SOQ32f9xsXmhmNtwk-27" value="&lt;font color=&quot;#000000&quot; style=&quot;font-size: 16px;&quot;&gt;Translate WordBuffer&amp;nbsp; &amp;amp; Save&lt;br&gt;&lt;br&gt;&lt;/font&gt;&lt;pre style=&quot;border-color: var(--border-color); text-align: left; margin-top: 0px; margin-bottom: 0px;&quot;&gt;&lt;font style=&quot;border-color: var(--border-color);&quot; color=&quot;#000000&quot;&gt;saveBufferVocabSignal&lt;/font&gt;&lt;font style=&quot;border-color: var(--border-color);&quot; color=&quot;#000000&quot;&gt;(str, str)&lt;/font&gt;&lt;/pre&gt;" style="rounded=1;whiteSpace=wrap;html=1;fontSize=16;fontColor=#ffffff;fontStyle=1;fillColor=#60a917;strokeColor=#2D7600;" parent="7QGZvYEfe1NqWT54HNF2-27" vertex="1">
          <mxGeometry x="10" y="120" width="300" height="60" as="geometry" />
        </mxCell>
        <mxCell id="7QGZvYEfe1NqWT54HNF2-29" value="&lt;font style=&quot;font-size: 16px;&quot; color=&quot;#000000&quot;&gt;UI QML&lt;/font&gt;" style="swimlane;whiteSpace=wrap;html=1;fillColor=#60a917;fontColor=#ffffff;strokeColor=#2D7600;" vertex="1" parent="1">
          <mxGeometry x="1920" y="1060" width="520" height="670" as="geometry">
            <mxRectangle x="3360" y="1160" width="100" height="30" as="alternateBounds" />
          </mxGeometry>
        </mxCell>
        <mxCell id="XT1SOQ32f9xsXmhmNtwk-17" value="&lt;b&gt;&lt;font color=&quot;#000000&quot;&gt;Notification Save/Undo&lt;br&gt;&lt;br&gt;&lt;/font&gt;&lt;/b&gt;&lt;pre style=&quot;margin-top: 0px; margin-bottom: 0px;&quot;&gt;&lt;font color=&quot;#000000&quot;&gt;NotificationWindow&lt;/font&gt;&lt;/pre&gt;" style="rounded=1;whiteSpace=wrap;html=1;fontSize=16;fillColor=#60a917;fontColor=#ffffff;strokeColor=#2D7600;" parent="7QGZvYEfe1NqWT54HNF2-29" vertex="1">
          <mxGeometry x="40" y="60" width="280" height="60" as="geometry" />
        </mxCell>
        <mxCell id="XT1SOQ32f9xsXmhmNtwk-18" value="&lt;font color=&quot;#000000&quot;&gt;Load WordBuffer&lt;br&gt;&lt;br&gt;&lt;/font&gt;&lt;pre style=&quot;margin-top: 0px; margin-bottom: 0px;&quot;&gt;&lt;font color=&quot;#000000&quot;&gt;fileManagerContext.updateBufferSignal()&lt;/font&gt;&lt;/pre&gt;" style="rounded=1;whiteSpace=wrap;html=1;fontSize=16;fontColor=#ffffff;fontStyle=1;fillColor=#60a917;strokeColor=#2D7600;" parent="7QGZvYEfe1NqWT54HNF2-29" vertex="1">
          <mxGeometry x="40" y="500" width="440" height="60" as="geometry" />
        </mxCell>
        <mxCell id="XT1SOQ32f9xsXmhmNtwk-19" value="&lt;font color=&quot;#000000&quot;&gt;Translate WordBuffer&amp;nbsp; &amp;amp; Save&lt;br&gt;&lt;br&gt;&lt;/font&gt;&lt;pre style=&quot;margin-top: 0px; margin-bottom: 0px;&quot;&gt;&lt;font color=&quot;#000000&quot;&gt;fileManagerContext.saveBufferVocabSignal(str, str)&lt;/font&gt;&lt;/pre&gt;" style="rounded=1;whiteSpace=wrap;html=1;fontSize=16;fontColor=#ffffff;fontStyle=1;fillColor=#60a917;strokeColor=#2D7600;" parent="7QGZvYEfe1NqWT54HNF2-29" vertex="1">
          <mxGeometry x="40" y="580" width="440" height="60" as="geometry" />
        </mxCell>
        <mxCell id="7QGZvYEfe1NqWT54HNF2-32" value="&lt;font color=&quot;#000000&quot; style=&quot;font-size: 16px;&quot;&gt;File txt (Vocab)&lt;/font&gt;" style="swimlane;whiteSpace=wrap;html=1;fillColor=#60a917;fontColor=#ffffff;strokeColor=#2D7600;" vertex="1" parent="1">
          <mxGeometry x="960" y="1627.5" width="160" height="290" as="geometry">
            <mxRectangle x="2120" y="960" width="150" height="30" as="alternateBounds" />
          </mxGeometry>
        </mxCell>
        <mxCell id="7QGZvYEfe1NqWT54HNF2-33" value="&lt;font color=&quot;#000000&quot; style=&quot;font-size: 16px;&quot;&gt;Add words from Buffer&lt;/font&gt;" style="rounded=1;whiteSpace=wrap;html=1;fillColor=#60a917;fontColor=#ffffff;strokeColor=#2D7600;fontSize=16;" vertex="1" parent="7QGZvYEfe1NqWT54HNF2-32">
          <mxGeometry x="20" y="40" width="120" height="60" as="geometry" />
        </mxCell>
        <mxCell id="7QGZvYEfe1NqWT54HNF2-70" style="edgeStyle=entityRelationEdgeStyle;rounded=0;orthogonalLoop=1;jettySize=auto;html=1;shape=link;entryX=1;entryY=0.5;entryDx=0;entryDy=0;" edge="1" parent="1" source="XT1SOQ32f9xsXmhmNtwk-19" target="7QGZvYEfe1NqWT54HNF2-71">
          <mxGeometry relative="1" as="geometry">
            <mxPoint x="1790" y="1670" as="targetPoint" />
          </mxGeometry>
        </mxCell>
        <mxCell id="7QGZvYEfe1NqWT54HNF2-71" value="&lt;font color=&quot;#000000&quot; style=&quot;font-size: 16px;&quot;&gt;&lt;b&gt;&lt;font style=&quot;font-size: 16px;&quot;&gt;Signal&lt;br&gt;&lt;/font&gt;&lt;br&gt;&lt;pre style=&quot;margin-top: 0px; margin-bottom: 0px;&quot;&gt;saveBufferVocabSignal(str, str)&lt;/pre&gt;&lt;/b&gt;&lt;/font&gt;" style="shape=parallelogram;perimeter=parallelogramPerimeter;whiteSpace=wrap;html=1;fixedSize=1;fillColor=#60a917;fontColor=#ffffff;strokeColor=#2D7600;fontSize=16;" vertex="1" parent="1">
          <mxGeometry x="1570" y="1640" width="300" height="60" as="geometry" />
        </mxCell>
        <mxCell id="7QGZvYEfe1NqWT54HNF2-72" style="edgeStyle=entityRelationEdgeStyle;rounded=0;orthogonalLoop=1;jettySize=auto;html=1;shape=link;entryX=1;entryY=0.5;entryDx=0;entryDy=0;exitX=0;exitY=0.5;exitDx=0;exitDy=0;" edge="1" parent="1" source="7QGZvYEfe1NqWT54HNF2-71" target="XT1SOQ32f9xsXmhmNtwk-27">
          <mxGeometry relative="1" as="geometry">
            <mxPoint x="1600" y="1710" as="sourcePoint" />
            <mxPoint x="1630" y="1740" as="targetPoint" />
          </mxGeometry>
        </mxCell>
        <mxCell id="7QGZvYEfe1NqWT54HNF2-76" value="" style="shape=flexArrow;endArrow=classic;startArrow=classic;html=1;rounded=0;entryX=0.5;entryY=1;entryDx=0;entryDy=0;exitX=0.5;exitY=0;exitDx=0;exitDy=0;" edge="1" parent="1" source="7QGZvYEfe1NqWT54HNF2-32" target="7QGZvYEfe1NqWT54HNF2-20">
          <mxGeometry width="100" height="100" relative="1" as="geometry">
            <mxPoint x="1030" y="1520" as="sourcePoint" />
            <mxPoint x="1130" y="1420" as="targetPoint" />
          </mxGeometry>
        </mxCell>
        <mxCell id="7QGZvYEfe1NqWT54HNF2-80" style="edgeStyle=entityRelationEdgeStyle;rounded=0;orthogonalLoop=1;jettySize=auto;html=1;entryX=1;entryY=0.5;entryDx=0;entryDy=0;" edge="1" parent="1" source="XT1SOQ32f9xsXmhmNtwk-27" target="7QGZvYEfe1NqWT54HNF2-33">
          <mxGeometry relative="1" as="geometry" />
        </mxCell>
      </root>
    </mxGraphModel>
  </diagram>
</mxfile>
